<svg width="218" height="24" viewBox="0 0 218 24" fill="none" xmlns="http://www.w3.org/2000/svg">
<path d="M49.5817 12.4361V16.6406C49.5817 20.5452 46.342 23.7124 42.3479 23.7124H38.7764V13.3939C38.7764 12.5095 37.6621 12.0934 37.058 12.7482L29.1136 21.3745C27.7426 22.8648 25.7894 23.7155 23.7391 23.7155H20.7279C20.3648 23.7155 20.0706 23.4278 20.0706 23.0729V13.3939C20.0706 12.5095 18.9562 12.0934 18.3521 12.7482L10.4078 21.3745C9.03677 22.8648 7.08355 23.7155 5.0333 23.7155H0.657331C0.294232 23.7155 0 23.4278 0 23.0729V8.33867C0 7.9531 0.438221 7.72359 0.766888 7.9378L5.53725 11.0254C5.74071 11.157 6.01304 11.1233 6.17581 10.9458L10.749 5.97935L15.3284 1.00982C15.92 0.367204 16.7651 0 17.6478 0H19.7451C20.8343 0 21.717 0.862933 21.717 1.92783V10.955C21.717 11.2182 21.9362 11.4354 22.2054 11.4385L23.3729 11.4507C24.0334 11.4569 24.6657 11.1876 25.107 10.7071L34.0342 1.01288C34.6258 0.370267 35.471 0.00306305 36.3568 0.00306305H38.454C39.5433 0.00306305 40.426 0.865996 40.426 1.9309V10.9887C40.426 11.2549 40.6483 11.4722 40.9206 11.4722H48.602C49.1404 11.4722 49.5817 11.9036 49.5817 12.4361Z" fill="#1641FF"/>
<path d="M67.0886 14.8692L65.5047 19.1411L63.8895 14.857L59.3978 4.2998H54.5898V23.7159H58.1707V12.2682L58.033 9.76813L58.9815 12.3661L63.4138 22.5837H67.4798L71.8871 12.3569L72.8418 9.86912L72.7542 12.2804V23.7159H76.3038V4.2998H71.4958L67.0886 14.8692Z" fill="#121212"/>
<path d="M84.9787 8.91699C81.0942 8.91699 78.3804 11.2334 78.3804 14.5475V15.0524H81.8454V14.4067C81.8454 12.6656 82.6217 12.0505 84.8066 12.0505C87.0634 12.0505 87.824 12.6809 87.824 14.5475V15.1228L82.9786 15.8297C79.6105 16.2948 77.9766 17.6627 77.9766 20.0128C77.9766 22.4333 79.8609 24 82.7782 24C85.6486 24 87.1667 22.7546 87.9117 21.7907V23.7154H91.261V14.9423C91.261 11.1692 88.9133 8.91699 84.9787 8.91699ZM83.7924 21.1236C81.858 21.1236 81.4698 20.6125 81.4698 19.7863C81.4698 18.9938 81.7641 18.6021 83.5076 18.3603L87.824 17.7177C87.824 20.6799 85.298 21.1236 83.7924 21.1236Z" fill="#121212"/>
<path d="M100.423 8.91406L100.198 8.92019V8.93242C99.6847 8.96302 99.1996 9.06401 98.7645 9.22313C97.863 9.55668 97.1211 10.1595 96.6266 10.949V9.11296H93.3086V23.7156H96.8895V14.3181C96.8895 12.5586 97.4842 11.9619 99.2434 11.9619H103.86V19.1591C103.86 22.311 105.441 23.7125 108.984 23.7125C109.908 23.7125 110.941 23.6115 111.614 23.4524L111.786 23.4096V20.5239H109.795C107.839 20.5239 107.441 20.273 107.441 19.0184V11.9619H111.786V8.91406H103.86H100.423Z" fill="#121212"/>
<path d="M169.543 8.91406V11.9619H171.947V19.1591C171.947 22.311 173.525 23.7125 177.071 23.7125C177.994 23.7125 179.027 23.6115 179.7 23.4524L179.872 23.4096V20.5239H177.882C175.922 20.5239 175.528 20.273 175.528 19.0184V11.9619H179.872V8.91406H171.95H169.543Z" fill="#121212"/>
<path d="M120.136 8.91699C115.634 8.91699 112.727 11.873 112.727 16.4447C112.727 21.0348 115.634 24 120.136 24C124.568 24 127.429 21.0348 127.429 16.4447C127.429 11.8699 124.565 8.91699 120.136 8.91699ZM120.136 20.839C117.337 20.839 116.248 19.6058 116.248 16.4447C116.248 13.3021 117.337 12.078 120.136 12.078C122.893 12.078 123.967 13.3021 123.967 16.4447C123.964 19.6058 122.89 20.839 120.136 20.839Z" fill="#121212"/>
<path d="M147.276 8.91699C144.283 8.91699 142.884 10.4746 142.261 11.616C141.419 9.84725 139.757 8.91699 137.425 8.91699C134.671 8.91699 133.284 10.2573 132.611 11.362V9.19851H129.293V23.7154H132.874V15.2819C132.874 12.9134 133.785 11.9893 136.126 11.9893C138.493 11.9893 139.291 12.8339 139.291 15.337V23.7124H142.872V15.3064C142.872 12.9165 143.782 11.9862 146.124 11.9862C148.49 11.9862 149.288 12.8308 149.288 15.3339V23.7093H152.869V14.6515C152.86 11.0101 150.825 8.91699 147.276 8.91699Z" fill="#121212"/>
<path d="M161.533 8.91699C157.649 8.91699 154.935 11.2334 154.935 14.5475V15.0524H158.4V14.4067C158.4 12.6656 159.176 12.0505 161.361 12.0505C163.618 12.0505 164.379 12.6809 164.379 14.5475V15.1228L159.533 15.8297C156.165 16.2948 154.531 17.6627 154.531 20.0128C154.531 22.4333 156.416 24 159.333 24C162.203 24 163.721 22.7546 164.466 21.7907V23.7154H167.816V14.9423C167.816 11.1692 165.468 8.91699 161.533 8.91699ZM160.347 21.1236C158.413 21.1236 158.025 20.6125 158.025 19.7863C158.025 18.9938 158.319 18.6021 160.062 18.3603L164.379 17.7177C164.379 20.6799 161.853 21.1236 160.347 21.1236Z" fill="#121212"/>
<path d="M194.788 8.91699C190.287 8.91699 187.379 11.873 187.379 16.4447C187.379 21.0348 190.287 24 194.788 24C199.22 24 202.081 21.0348 202.081 16.4447C202.084 11.8699 199.22 8.91699 194.788 8.91699ZM194.788 20.839C191.99 20.839 190.9 19.6058 190.9 16.4447C190.9 13.3021 191.99 12.078 194.788 12.078C197.546 12.078 198.619 13.3021 198.619 16.4447C198.619 19.6058 197.546 20.839 194.788 20.839Z" fill="#121212"/>
<path d="M212.2 8.91699C210.009 8.91699 208.263 9.80135 207.298 11.365V9.20158H203.98V23.7185H207.561V15.3707C207.561 12.941 208.538 11.9954 211.045 11.9954C213.455 11.9954 214.266 12.84 214.266 15.3431V23.7185H217.847V14.6607C217.844 11.0101 215.787 8.91699 212.2 8.91699Z" fill="#121212"/>
<path d="M185.499 8.91406H181.918V23.7156H185.499V8.91406Z" fill="#121212"/>
<path d="M107.44 5.41394V5.1875H103.859V8.91465C105.838 8.91465 107.44 7.3479 107.44 5.41394Z" fill="#121212"/>
<path d="M175.53 5.41394V5.1875H171.949V8.91465C173.927 8.91465 175.53 7.3479 175.53 5.41394Z" fill="#121212"/>
<path d="M181.918 8.91465C183.896 8.91465 185.499 7.3479 185.499 5.41394V5.1875H181.918V8.91465Z" fill="#121212"/>
</svg>
