<svg width="96" height="48" viewBox="0 0 96 48" fill="none" xmlns="http://www.w3.org/2000/svg">
<path d="M95.8195 24.8722V33.2812C95.8195 41.0905 89.5586 47.4248 81.8398 47.4248H74.9376V26.7878C74.9376 25.0191 72.7841 24.1867 71.6166 25.4964L56.2637 42.749C53.6142 45.7295 49.8395 47.4309 45.8772 47.4309H40.0579C39.3562 47.4309 38.7876 46.8557 38.7876 46.1457V26.7878C38.7876 25.0191 36.634 24.1867 35.4665 25.4964L20.1136 42.749C17.4641 45.7295 13.6894 47.4309 9.72713 47.4309H1.27033C0.56862 47.4309 0 46.8557 0 46.1457V16.6773C0 15.9062 0.846888 15.4472 1.48206 15.8756L10.7011 22.0508C11.0943 22.3139 11.6205 22.2467 11.9351 21.8917L20.773 11.9587L29.623 2.01963C30.7663 0.734407 32.3996 0 34.1054 0H38.1584C40.2636 0 41.9694 1.72587 41.9694 3.85567V21.91C41.9694 22.4364 42.3929 22.8709 42.9131 22.877L45.1695 22.9015C46.4458 22.9137 47.6678 22.3752 48.5207 21.4143L65.7731 2.02576C66.9164 0.740533 68.5497 0.0061261 70.2616 0.0061261H74.3146C76.4197 0.0061261 78.1256 1.73199 78.1256 3.8618V21.9773C78.1256 22.5098 78.5551 22.9443 79.0813 22.9443H93.9261C94.9666 22.9443 95.8195 23.8073 95.8195 24.8722Z" fill="#1641FF"/>
</svg>
