<svg width="114" height="32" viewBox="0 0 114 32" fill="none" xmlns="http://www.w3.org/2000/svg">
<path d="M25.4664 6.59965C25.4559 6.53359 25.4233 6.47294 25.3738 6.4274C25.3244 6.38186 25.261 6.35406 25.1938 6.34845C25.0808 6.3392 22.8666 6.30581 22.8666 6.30581C22.8666 6.30581 21.0152 4.52328 20.8323 4.34246C20.6493 4.16113 20.2922 4.21558 20.1533 4.25667C20.1517 4.2577 19.806 4.36352 19.2235 4.54229C19.1083 4.16837 18.9591 3.80558 18.7777 3.45839C18.1195 2.21165 17.1534 1.55257 15.9872 1.55052H15.9825C15.9017 1.55052 15.8219 1.55822 15.7405 1.5649C15.7063 1.52406 15.6713 1.48398 15.6353 1.4447C15.1273 0.905314 14.4753 0.643329 13.6948 0.666445C12.1886 0.709082 10.6881 1.78733 9.47164 3.70239C8.61541 5.05034 7.96442 6.74348 7.77939 8.05444L4.81419 8.96522C3.94085 9.23697 3.91338 9.26317 3.79936 10.0794C3.71436 10.6959 1.42969 28.2042 1.42969 28.2042L20.5757 31.4867L28.8737 29.4422C28.8737 29.4422 25.4877 6.7553 25.4664 6.59965ZM18.2641 4.83664L16.7786 5.29229C16.7672 4.53664 16.6771 3.48459 16.3215 2.57586C17.4644 2.79058 18.0267 4.07226 18.2641 4.83664ZM15.7768 5.59999L12.5804 6.58115C12.8893 5.4089 13.475 4.24126 14.1949 3.47637C14.4624 3.19127 14.8366 2.87432 15.2802 2.69298C15.697 3.55496 15.7871 4.77499 15.7768 5.60051V5.59999ZM13.7243 1.65994C14.0783 1.65223 14.3758 1.72928 14.6303 1.89521C14.2229 2.1048 13.8295 2.40582 13.4605 2.79829C12.5037 3.81541 11.7703 5.39503 11.478 6.91865C10.5658 7.19862 9.67378 7.47293 8.85227 7.72413C9.37057 5.32568 11.3992 1.72672 13.7243 1.65994Z" fill="#95BF47"/>
<path d="M25.1962 6.34918C25.0832 6.33942 22.8695 6.30603 22.8695 6.30603C22.8695 6.30603 21.0182 4.52402 20.8352 4.3432C20.7643 4.27792 20.6742 4.23687 20.5781 4.22607L20.5786 31.4854L28.8761 29.4419C28.8761 29.4419 25.4906 6.75603 25.4688 6.60038C25.4583 6.53427 25.4257 6.47355 25.3763 6.42792C25.3269 6.3823 25.2635 6.3544 25.1962 6.34867V6.34918Z" fill="#5E8E3E"/>
<path d="M15.9778 10.5774L15.0138 14.1507C15.0138 14.1507 13.9388 13.6663 12.6648 13.7454C10.7958 13.863 10.7761 15.0306 10.7953 15.324C10.8969 16.9221 15.1387 17.2709 15.3771 21.0147C15.5642 23.9597 13.8009 25.9744 11.2602 26.1337C8.21003 26.3238 6.53125 24.5412 6.53125 24.5412L7.17757 21.8171C7.17757 21.8171 8.86723 23.0808 10.22 22.996C11.1037 22.9405 11.4199 22.2281 11.3877 21.7246C11.255 19.64 7.80057 19.7628 7.58236 16.3375C7.39837 13.4551 9.30831 10.5337 13.5231 10.2707C15.147 10.167 15.9778 10.5774 15.9778 10.5774Z" fill="white"/>
<path d="M39.8027 18.0603C38.849 17.5466 38.3582 17.1145 38.3582 16.5197C38.3582 15.7635 39.0392 15.2776 40.1033 15.2776C41.3415 15.2776 42.447 15.7908 42.447 15.7908L43.3188 13.1426C43.3188 13.1426 42.517 12.5211 40.1572 12.5211C36.8727 12.5211 34.5963 14.3853 34.5963 17.0056C34.5963 18.4918 35.6588 19.6265 37.0774 20.4366C38.2224 21.0844 38.6313 21.5442 38.6313 22.2192C38.6313 22.9214 38.0586 23.489 36.9961 23.489C35.4121 23.489 33.9163 22.6784 33.9163 22.6784L32.9896 25.326C32.9896 25.326 34.3714 26.2445 36.6965 26.2445C40.0763 26.2445 42.5025 24.5965 42.5025 21.6248C42.5014 20.0323 41.2757 18.8971 39.8027 18.0598V18.0603ZM53.2686 12.4949C51.6059 12.4949 50.2972 13.2783 49.2891 14.4664L49.2347 14.4392L50.6792 6.95619H46.9174L43.2649 26.002H47.0267L48.281 19.4914C48.7713 17.0324 50.0526 15.5205 51.2519 15.5205C52.0968 15.5205 52.4243 16.0877 52.4243 16.8983C52.4243 17.412 52.3699 18.0336 52.2611 18.5462L50.844 26.0025H54.6058L56.0773 18.3032C56.2411 17.4921 56.3504 16.5207 56.3504 15.8714C56.3489 13.7637 55.2314 12.4944 53.2691 12.4944L53.2686 12.4949ZM64.8527 12.4949C60.3274 12.4949 57.33 16.5469 57.33 21.0582C57.33 23.9488 59.1285 26.2717 62.5089 26.2717C66.9518 26.2717 69.9501 22.3281 69.9501 17.7084C69.9501 15.0341 68.3688 12.4944 64.8527 12.4944V12.4949ZM62.9992 23.4094C61.718 23.4094 61.1727 22.3286 61.1727 20.9776C61.1727 18.8437 62.2907 15.3587 64.3349 15.3587C65.6705 15.3587 66.1059 16.494 66.1059 17.601C66.1059 19.8972 64.9895 23.4094 62.9992 23.4094ZM79.5719 12.4949C77.0327 12.4949 75.5918 14.7099 75.5918 14.7099H75.5379L75.7561 12.7111H72.4307C72.2675 14.0622 71.9668 16.1144 71.6678 17.6544L69.0509 31.2967H72.8127L73.8478 25.7858H73.9302C73.9302 25.7858 74.7019 26.2717 76.1381 26.2717C80.5535 26.2717 83.4425 21.7877 83.4425 17.2486C83.4425 14.7372 82.3246 12.4949 79.5719 12.4949ZM75.9738 23.4623C74.9974 23.4623 74.4194 22.9224 74.4194 22.9224L75.0466 19.4375C75.483 17.1145 76.7093 15.5745 78.018 15.5745C79.1629 15.5745 79.5169 16.6276 79.5169 17.6277C79.5169 20.0318 78.0724 23.4628 75.9738 23.4628V23.4623ZM88.8121 7.14574C87.6133 7.14574 86.6591 8.09095 86.6591 9.30635C86.6591 10.4144 87.3676 11.1711 88.4307 11.1711H88.4851C89.6575 11.1711 90.6656 10.3872 90.6931 9.00995C90.6931 7.92913 89.9571 7.14523 88.8121 7.14523V7.14574ZM83.5519 26.002H87.3127L89.8757 12.7923H86.0864L83.5519 26.002ZM99.443 12.7651H96.8261L96.9619 12.1435C97.1801 10.8736 97.9436 9.7394 99.1973 9.7394C99.6044 9.74031 100.009 9.80409 100.396 9.92844L101.132 7.01064C101.132 7.01064 100.478 6.68701 99.0874 6.68701C97.7518 6.68701 96.4172 7.06509 95.408 7.92913C94.1268 9.00995 93.5271 10.5762 93.2275 12.1435L93.1192 12.7651H91.3741L90.8288 15.575H92.574L90.5842 26.003H94.346L96.3358 15.575H98.9252L99.443 12.7651ZM108.492 12.7928C108.492 12.7928 106.14 18.6644 105.085 21.8693H105.03C104.958 20.8368 104.103 12.7923 104.103 12.7923H100.15L102.414 24.9212C102.469 25.1914 102.441 25.3542 102.332 25.5428C101.895 26.3801 101.16 27.1912 100.287 27.7856C99.5788 28.2988 98.7884 28.6229 98.1618 28.8387L99.1973 32C99.9608 31.8381 101.541 31.216 102.877 29.9739C104.594 28.3799 106.175 25.9214 107.81 22.5716L112.417 12.7913H108.492V12.7928Z" fill="white"/>
</svg>
